<svg width="82" height="80" viewBox="0 0 82 80" fill="none" xmlns="http://www.w3.org/2000/svg">
<path d="M35.8325 3.77506C37.1044 -1.25835 44.2559 -1.25836 45.5278 3.77505L48.6615 16.1763C49.4249 19.1975 52.7358 20.7919 55.5738 19.5051L67.2233 14.2231C71.9516 12.0792 76.4105 17.6705 73.2682 21.8031L65.5264 31.9852C63.6403 34.4657 64.458 38.0484 67.2336 39.465L78.6266 45.2796C83.2508 47.6397 81.6594 54.6118 76.4692 54.7318L63.6816 55.0274C60.5663 55.0994 58.275 57.9725 58.898 61.0257L61.4554 73.5585C62.4934 78.6453 56.0501 81.7482 52.7203 77.7651L44.5163 67.9516C42.5176 65.5609 38.8427 65.5609 36.8441 67.9516L28.6401 77.7651C25.3102 81.7482 18.867 78.6453 19.9049 73.5585L22.4623 61.0257C23.0853 57.9725 20.7941 55.0994 17.6788 55.0274L4.89116 54.7318C-0.299071 54.6118 -1.89043 47.6397 2.73375 45.2796L14.1268 39.465C16.9023 38.0484 17.7201 34.4657 15.834 31.9852L8.09212 21.8031C4.94985 17.6705 9.40872 12.0792 14.137 14.2231L25.7865 19.5051C28.6245 20.7919 31.9355 19.1975 32.6989 16.1763L35.8325 3.77506Z" fill="#FF6EC7"/>
</svg>
